<?xml version="1.0" encoding="utf-8"?>
<!-- Generator: Adobe Illustrator 26.1.0, SVG Export Plug-In . SVG Version: 6.00 Build 0)  -->
<svg version="1.1" id="Capa_1" xmlns="http://www.w3.org/2000/svg" xmlns:xlink="http://www.w3.org/1999/xlink" x="0px" y="0px"
	 viewBox="0 0 100 100" style="enable-background:new 0 0 100 100;" xml:space="preserve">
<polygon points="58.6,52.1 92.3,87.5 92.3,89 6.2,89 6.2,87.5 38.3,52.1 "/>
<g id="cenizas">
	<path d="M16.4,17.9c0.1-4.8,4-8.7,8.9-8.7c2.6,0,5,1.2,6.7,3.1c2.2-2.6,5.5-4,8.9-4c5.3,0,9.9,3.5,11.3,8.6c1.5-0.6,3-0.8,4.6-0.9
		c0.7,0,1.5,0.1,2.1,0.1c0.2-1.4,1.4-2.5,2.8-2.5c1.6,0.1,2.8,1.4,2.7,2.9c0,0.6-0.2,1.2-0.6,1.6c1.5,1,2.9,2.3,3.8,3.8
		c0.4-0.4,1-0.6,1.6-0.6c1.5,0.1,2.7,1.3,2.8,2.9c-0.1,1.5-1.3,2.7-2.8,2.7c0.1,0.4,0.1,0.9,0.1,1.4c-0.1,6.8-5.6,12.3-12.4,12.4
		c-1.7,4.6-6.7,7-11.3,5.4c-3.5-1.3-5.9-4.6-5.9-8.4c0-2.5,1.2-4.9,3.1-6.5c-0.6,0.1-1.2,0.1-1.8,0.1c-4.4,0-8.4-2.4-10.5-6.3
		c-1.5,1.1-3.3,1.7-5.2,1.7C20.4,26.7,16.4,22.7,16.4,17.9z"/>
	<path d="M51.8,8.8c0.1-1.5,1.3-2.8,2.8-2.8c1.5,0.1,2.7,1.3,2.7,2.8c0,1.5-1.2,2.7-2.7,2.7C53.2,11.5,51.9,10.3,51.8,8.8z"/>
	<path d="M61.7,45.7c1.4,0.1,2.6,1.3,2.7,2.7c0,1.5-1.2,2.8-2.7,2.8c-1.5,0-2.8-1.2-2.8-2.7c0,0,0-0.1,0-0.1
		C59,46.9,60.2,45.7,61.7,45.7z"/>
	<path d="M66.4,8.8c0.1-1.5,1.3-2.8,2.8-2.8C70.7,6,71.9,7.2,72,8.8c-0.1,1.5-1.3,2.7-2.8,2.7C67.7,11.5,66.4,10.3,66.4,8.8z"/>
	<path d="M72,40.6c-0.1,1.5-1.3,2.7-2.8,2.8c-1.5,0-2.8-1.2-2.8-2.7c0,0,0-0.1,0-0.1c0.1-1.5,1.3-2.7,2.8-2.7
		C70.6,38,71.8,39.2,72,40.6z"/>
	<path d="M72,56.2c-0.1,1.5-1.3,2.7-2.8,2.8c-1.5,0-2.8-1.2-2.8-2.7c0,0,0-0.1,0-0.1c0.1-1.5,1.3-2.7,2.8-2.7
		C70.6,53.7,71.8,54.8,72,56.2z"/>
	<path d="M73.3,16.4c0-1.6,1.3-2.8,2.8-2.8c1.6,0,2.8,1.3,2.8,2.8c0,0,0,0,0,0c-0.1,1.5-1.3,2.6-2.7,2.7
		C74.8,19.1,73.5,17.9,73.3,16.4L73.3,16.4z"/>
	<path d="M73.3,32.8c0.1-1.5,1.3-2.7,2.8-2.8c1.5,0.2,2.6,1.3,2.8,2.8c-0.1,1.5-1.3,2.7-2.8,2.8C74.6,35.5,73.4,34.3,73.3,32.8
		L73.3,32.8z"/>
	<path d="M73.3,48.4c0.1-1.5,1.3-2.6,2.8-2.7c1.5,0.1,2.6,1.3,2.8,2.7c-0.1,1.5-1.3,2.7-2.8,2.8C74.6,51.2,73.4,49.9,73.3,48.4
		L73.3,48.4z"/>
	<path d="M73.3,63.7c0-1.6,1.3-2.8,2.8-2.8c1.6,0,2.8,1.3,2.8,2.8c0,1.6-1.3,2.8-2.8,2.8S73.3,65.3,73.3,63.7
		C73.3,63.7,73.3,63.7,73.3,63.7z"/>
	<path d="M81,8.8c0.1-1.6,1.4-2.8,3-2.8c1.5,0.1,2.7,1.3,2.7,2.8c0,1.5-1.2,2.7-2.7,2.7C82.5,11.5,81.1,10.3,81,8.8z"/>
	<path d="M81,24.3c0.1-1.6,1.4-2.8,3-2.8c1.5,0.1,2.7,1.3,2.7,2.8c0,1.5-1.2,2.7-2.7,2.7C82.4,27,81.1,25.8,81,24.3z"/>
	<path d="M81,40.6c0.1-1.5,1.3-2.7,2.8-2.7c1.5,0.1,2.6,1.3,2.8,2.7c-0.1,1.5-1.3,2.8-2.8,2.8c-1.5,0-2.8-1.2-2.8-2.7
		C81,40.7,81,40.7,81,40.6z"/>
	<path d="M81,56.2c0.1-1.5,1.3-2.7,2.8-2.7c1.5,0.1,2.6,1.3,2.8,2.7c-0.1,1.5-1.3,2.8-2.8,2.8c-1.5,0-2.8-1.2-2.8-2.7
		C81,56.3,81,56.3,81,56.2z"/>
	<path d="M81,71.6c0.2-1.5,1.5-2.7,3-2.7c1.5,0.1,2.7,1.4,2.6,2.9c-0.1,1.4-1.2,2.5-2.6,2.6C82.4,74.4,81.1,73.2,81,71.6z"/>
	<path d="M88.1,16.4c0.1-1.6,1.3-2.8,2.9-2.8c1.6,0,2.8,1.3,2.8,2.8c0,1.6-1.3,2.8-2.8,2.8S88.2,18,88.1,16.4L88.1,16.4L88.1,16.4z"
		/>
	<path d="M93.8,32.8c0,1.5-1.2,2.8-2.7,2.8c-1.6,0.1-2.9-1.2-3-2.8c0,0,0,0,0-0.1c0.2-1.5,1.5-2.7,3-2.7
		C92.5,30.2,93.7,31.3,93.8,32.8z"/>
	<path d="M93.8,48.4c0,1.5-1.2,2.8-2.7,2.8c-1.6,0.1-2.9-1.2-3-2.8c0,0,0,0,0-0.1c0.2-1.5,1.5-2.7,3-2.7
		C92.5,45.8,93.7,46.9,93.8,48.4z"/>
	<path d="M93.8,63.7c0,1.5-1.2,2.8-2.7,2.8c-1.6,0-2.9-1.3-3-2.8c0.2-1.5,1.5-2.7,3-2.7C92.6,61.1,93.8,62.3,93.8,63.7z"/>
	<path d="M93.8,79.4c0,1.5-1.2,2.8-2.7,2.8c-1.6,0-2.9-1.3-3-2.8c0.2-1.5,1.5-2.7,3-2.7C92.6,76.7,93.8,77.9,93.8,79.4z"/>
</g>
</svg>
