<?xml version="1.0" encoding="utf-8"?>
<!-- Generator: Adobe Illustrator 26.1.0, SVG Export Plug-In . SVG Version: 6.00 Build 0)  -->
<svg version="1.1" id="Capa_1" xmlns="http://www.w3.org/2000/svg" xmlns:xlink="http://www.w3.org/1999/xlink" x="0px" y="0px"
	 viewBox="0 0 100 100" style="enable-background:new 0 0 100 100;" xml:space="preserve">
<style type="text/css">
	.st0{fill:#734741;}
	.st1{fill:#AEAEAE;}

g#cenizas {
	animation: explotion .25s linear 0s infinite
	}
	@keyframes explotion {
	from {transform: translate(0,10px)}
	to {transform: translate(o,-10px)}
	}
</style>

<polygon class="st0" points="58.6,52.1 92.3,87.5 92.3,89 6.2,89 6.2,87.5 38.3,52.1 "/>

<g id="cenizas">
	<path class="st1" d="M16.4,17.9c0.1-4.8,4-8.7,8.9-8.7c2.6,0,5,1.2,6.7,3.1c2.2-2.6,5.5-4,8.9-4c5.3,0,9.9,3.5,11.3,8.6
		c1.5-0.6,3-0.8,4.6-0.9c0.7,0,1.5,0.1,2.1,0.1c0.2-1.4,1.4-2.5,2.8-2.5c1.6,0.1,2.8,1.4,2.7,2.9c0,0.6-0.2,1.2-0.6,1.6
		c1.5,1,2.9,2.3,3.8,3.8c0.4-0.4,1-0.6,1.6-0.6c1.5,0.1,2.7,1.3,2.8,2.9c-0.1,1.5-1.3,2.7-2.8,2.7c0.1,0.4,0.1,0.9,0.1,1.4
		c-0.1,6.8-5.6,12.3-12.4,12.4c-1.7,4.6-6.7,7-11.3,5.4c-3.5-1.3-5.9-4.6-5.9-8.4c0-2.5,1.2-4.9,3.1-6.5c-0.6,0.1-1.2,0.1-1.8,0.1
		c-4.4,0-8.4-2.4-10.5-6.3c-1.5,1.1-3.3,1.7-5.2,1.7C20.4,26.7,16.4,22.7,16.4,17.9z"/>
	<path class="st1" d="M51.8,8.8c0.1-1.5,1.3-2.8,2.8-2.8c1.5,0.1,2.7,1.3,2.7,2.8c0,1.5-1.2,2.7-2.7,2.7
		C53.2,11.5,51.9,10.3,51.8,8.8z"/>
	<path class="st1" d="M66.4,8.8c0.1-1.5,1.3-2.8,2.8-2.8C70.7,6,71.9,7.2,72,8.8c-0.1,1.5-1.3,2.7-2.8,2.7
		C67.7,11.5,66.4,10.3,66.4,8.8z"/>
	<path class="st1" d="M73.3,16.4c0-1.6,1.3-2.8,2.8-2.8c1.6,0,2.8,1.3,2.8,2.8c0,0,0,0,0,0c-0.1,1.5-1.3,2.6-2.7,2.7
		C74.8,19.1,73.5,17.9,73.3,16.4L73.3,16.4z"/>
	<path class="st1" d="M73.3,32.8c0.1-1.5,1.3-2.7,2.8-2.8c1.5,0.2,2.6,1.3,2.8,2.8c-0.1,1.5-1.3,2.7-2.8,2.8
		C74.6,35.5,73.4,34.3,73.3,32.8L73.3,32.8z"/>
	<path class="st1" d="M81,8.8c0.1-1.6,1.4-2.8,3-2.8c1.5,0.1,2.7,1.3,2.7,2.8c0,1.5-1.2,2.7-2.7,2.7C82.5,11.5,81.1,10.3,81,8.8z"/>
	<path class="st1" d="M81,24.3c0.1-1.6,1.4-2.8,3-2.8c1.5,0.1,2.7,1.3,2.7,2.8c0,1.5-1.2,2.7-2.7,2.7C82.4,27,81.1,25.8,81,24.3z"/>
	<path class="st1" d="M88.1,16.4c0.1-1.6,1.3-2.8,2.9-2.8c1.6,0,2.8,1.3,2.8,2.8c0,1.6-1.3,2.8-2.8,2.8S88.2,18,88.1,16.4L88.1,16.4
		L88.1,16.4z"/>
	<path class="st1" d="M93.8,32.8c0,1.5-1.2,2.8-2.7,2.8c-1.6,0.1-2.9-1.2-3-2.8c0,0,0,0,0-0.1c0.2-1.5,1.5-2.7,3-2.7
		C92.5,30.2,93.7,31.3,93.8,32.8z"/>
</g>
</svg>
