<?xml version="1.0" encoding="utf-8"?>
<!-- Generator: Adobe Illustrator 26.1.0, SVG Export Plug-In . SVG Version: 6.00 Build 0)  -->
<svg version="1.1" xmlns="http://www.w3.org/2000/svg" xmlns:xlink="http://www.w3.org/1999/xlink" x="0px" y="0px"
	 viewBox="0 0 800 500" style="enable-background:new 0 0 800 500;" xml:space="preserve">
<style type="text/css">
	.st0{fill:#EE7217;}
	.st1{opacity:0.63;fill:#EE7217;}
</style>
<g id="background">
</g>
<g id="lava">
	<g>
		<path class="st0" d="M364.5,291.4c-0.9-1.1-1.7-2.3-2.7-3.3c-0.9-0.9-1.6-1.7-2.3-2.7c-0.7-1-1.4-1.9-1.8-3
			c-0.2-0.6-0.6-1-0.9-1.6c-0.3-0.8-0.3-1.5-0.8-2.3c-0.9-1.6-1.3-3.3-1.8-5.1c-0.3-1-0.7-2.1-0.9-3.1c-0.2-1.1-0.3-2.2-0.6-3.3
			c-0.6-1.8-1.5-3.6-2.8-5.3c-0.8-1.1-1.3-2.3-1.8-3.5s-0.9-2.5-1.7-3.7c-1.1-2.5-2.9-4.3-4.9-6.2c-0.6-1-1.7-1.3-2-2.3
			c-0.4-1-1.1-1.9-1.5-3c-0.9-2.2-1.2-4.7-2.7-6.7c-0.7-0.9-1.7-1.6-2.5-2.6c-0.8-1-1.2-2-2.1-2.8c-2.5-2.1-4.1-5.2-5.7-8
			c-1.5-2.7-3.4-4.9-3.3-7.8c0-1.1-0.2-3.6,1.2-3.1c0.7,0.3,2.8,2.3,3.3,2.9c2.1,2.8,3.4,6,4.4,9c1.1,3.1,5.2,8.2,7.4,10.8
			c1.1,1.3,0.4,1.5,1.4,2.8c0.9,1.1,0.7,0.9,1.8,1.8c0.6-0.4,1.5,1.3,2.4,1.3c1.8-1.8,0.9-3.5-0.1-5.6c-1-1.3-2.2-2.5-3-3.6
			c-0.8-1-1.8-2.6-1.9-3.8c-0.1-1.6,0.7-3.1,1.2-4.4c1.3-3.2,3.8-3.3,6.5-2.2c0.9,0.4,1.8,0.8,2.8,1.4c15.7,3.2,29.8,13.8,30.1,31.1
			c0.4,0.5,1.5,2.2,2.2,2.1c0.3,0,0.6-0.6,0.9-0.7c0.6-0.3,1.2-0.2,1.9-0.3c1.5-0.1,2.9,0.3,4.3,0.3c1.2-0.1,2.1-1.5,2.4-2.8
			c0.3-1.6-0.5-3.6-1-5.2c-0.4-11.6-4.8-22.1-10.6-31.9c-0.3-1-0.6-2.1-0.8-3.1c-0.5-2.1-0.9-4.3-1.4-6.6c-1.9-7.6-5-18.6-0.8-25.7
			c1.6-2.6,2.9,0.4,3.1,3c0.4,4,0.8,7.9,1.2,11.6c0.7,6.4,0.7,13,2.4,18.5c0.4,1.4,0.9,2.6,1.4,3.7c0.5,1.1,1.1,2.2,1.7,3.5
			c1.7,8.3,5.2,15.3,5.5,23.3c0.1,1,0.3,2.1,0.5,3.1c0.3,1,0.6,2,0.9,2.9c0.5,1.2,1.2,2.3,1.6,3.5c0.4,1.5,0.7,2.1,1.8,3.1
			c0.6,0.6,1,1.2,1.6,1.7c0.7,0.5,1.6,0.9,2.3,1.3c1.5,0.9,2.7,2,3.7,3.4c0.7,0.9,1.7,2.2,2.8,2.7c1.3,0.6,1.7-0.2,2.8-1
			c0.8-0.6,1.1-1.3,1.8-2c0.8-0.8,2-1.5,3-2c2.3-1.2,4.6-2.5,7.1-3.2c2.6-0.7,5.4,0.1,7.7,0.7c2.5,0.8,6,0.8,8.7-0.8
			c1.9-1.1,3.8-2.2,5.8-3.2c1.2-0.6,2.6-1.4,3.8-1.1c-0.4,1.4-2,2.9-2.8,4.2c-0.9,1.4-1.7,2.8-2.7,4.2c-0.9,1.2-1.8,2.4-2.6,3.6
			c-0.9,1.2-1.3,2.5-2.3,3.6c-0.8,1-1.5,2-2.3,2.9c-2.3,3-4.3,5.8-5.6,8.9c-1.3,3.1-2.4,5.9-4.3,8.7c-0.8,1.2-1.7,2.5-2.8,3.6
			c-12.5,6.6-28.3,1.3-41.4,3c-1.4-0.1-2.8-0.2-4.2-0.4c-2.8-0.3-5.6-0.8-8.4-1.6C367.1,292.6,365.9,292,364.5,291.4z"/>
		<path class="st0" d="M424.1,295.7c0,0.1,0,0.2,0,0.3c-0.1-1.7,1.1-3.6,1.7-5.2c0.5-1.4,1.2-2.7,1.6-4.2c1.1-3.7,3.9-6.7,6.2-9.7
			c1.2-1.6,2.5-2.8,3.5-4.5c1.2-2,2.7-4,4-6c2.1-3.1,4.4-6,6.4-9c2-3,2.9-6.5,4.7-9.6c1.3-2.1,2.5-4.2,3.8-6.1c2.7-3.7,3-8.9,5-12.9
			c0.5-0.9,1.3-2.1,2-2.9c0.8-0.9,1.3-1.9,2.1-2.8c0.9-1.1,2.1-1.7,3-2.8c1.1-1.3,1.9-2.6,3.1-3.8c2.3-2.5,4.8-5,6.7-7.9
			c0.6-0.9,1.1-1.9,0.8-3.1c-0.3-1.2-1.8-1-2.8-0.7c-1,0.3-2,1.2-2.9,1.8c-1.1,0.7-1.9,1.3-2.5,2.5c-1.2,2-2.1,4.2-3.3,6.2
			c-3.8,6.2-7.7,12.2-10,19.2c-1.1,3.4-2.7,6.6-4,9.9c-0.9,2.1-2,4.9-3.7,6.4c-0.9,0.8-1.5,1.3-2.2,2.3c-0.5,0.7-1,0.9-1.6,1.5
			c-0.9,0.9-1.6,2.2-2.3,3.2c-0.9,1.3-1.4,2.5-2.4,3.7c-0.3,0.3-0.6,1-0.9,1.3c-0.2,0.2-0.9,0.3-1.2,0.4c-2,1-3.9,2.2-5.6,3.4
			c-1.1,0.8-3.1,1.8-4.4,2.1c-0.4,0.1-0.9-0.1-1.3,0c-0.5,0.1-0.8,0.4-1.3,0.5c-1.7,0.5-3.9,0.6-5.2,2.1c-1,1.2-0.7,3.8-3.1,3.2
			c-1.5-0.4-1.2-2-2-3c-0.7-0.9-2-0.5-3.4,0.2c-9,2.9-18.7,7.3-28.6,5.3c-1.2-0.3-2.4-0.7-3.6-1.2c-1.2-0.5-2.3-1.1-3.4-1.9
			c-1.1-0.6-2.2-1.1-3.2-1.6c-1.5-0.7-3-1.2-4.5-1.7c-0.8-0.2-1.7-0.6-2.4-0.7c-0.7-0.1-1.4-0.2-2.1-0.6c-1.2-0.8-1.5-2.5-2.1-3.8
			c-0.8-1.5-1.8-2.7-2.8-3.9c-9.1-5.6-15.3-11.8-19.5-20.2c-0.7-0.6-1.5-1.1-2.2-1.8c-0.7-0.7-4.7-6.8-5.4-8.1
			c-0.2-0.4,1.9,4.4,2.1,4.8c3.6,7.7,5.8,11.2,7.4,13.4c0.5,0.7,1,1.3,1.4,1.8c0.9,1.1,1.6,2,2.3,3.6c0.4,0.8,0.8,1.8,1.2,3
			c0.5,1.3,1,2.8,1.5,4.7c0.8,2.8,1.5,5.7,2.2,8.5c0.6,2.2,4.8,10.3,4.4,12.6c-0.7,3.7-9.7-2.1-12.4-2.7c-1-0.2-1.9-0.9-2.8-1.3
			c-1-0.4-2.2-0.6-3.2-1c-2.8-0.9-6-2.4-8.8-1c-1.5,0.7-3.4,2.3-2,3.9c1,1.1,2.9,1.7,4.4,1.3c1-0.3,1.6-0.5,2.6-0.6
			c1.1-0.1,1.9-0.5,3-0.6c0.8,0,1.5-0.1,2.3-0.1c0.5,0,0.8,0,1.2,0c0.1,0.2,0.3,0.3,0.5,0.3c0.3,0,0.6-0.1,0.9-0.1
			c0.7,0.1,1.6,0.6,2.3,0.7c1.1,0.2,2,0.1,3,0.4c0.9,0.3,1.8,0.4,2.7,0.8c0.8,0.3,1.6,0.7,2.4,1.1c1.9,0.9,3.3,2.8,4.4,4.5
			c0.5,0.7,1,1.4,1.5,2.1c0.5,0.6,1.3,1.3,1.4,2.2c2.5,1.1,4.7,1.8,6.9,2.2c1.1,0.2,2.2,0.4,3.4,0.6c2.8,0.6,5.7,1.1,8.5,1.6
			c1.4,0.2,2.9,0.4,4.3,0.6c13.5,1.8,25.9-0.8,39.4-2.2C422.5,297,423,295.7,424.1,295.7z"/>
		<path class="st0" d="M447.2,252.7c-0.6,0.2-1,0.3-1.5,0.5c-0.3,0.2-0.5,0.4-0.8,0.6c-0.5,0.3-1,0.7-1.5,0.9
			c-0.9,0.3-1.8,0.6-2.6,1.1c-0.7,0.4-1.3,0.9-2,1.4c-0.5,0.5-1.2,0.6-1.9,0.8c-0.2,0-0.3,0.1-0.5,0.1c-0.3,0-0.6,0-0.8,0
			c-0.3,0.1-0.5,0.1-0.8,0.2c-0.1,0-0.1,0.1-0.2,0.1c-0.2,0-0.3,0-0.5,0c-0.3,0.1-0.4,0.1-0.7,0.1c-0.3,0-0.6,0-0.9,0
			c-0.8-0.1-1.6-0.2-2.3-0.4c-0.7-0.2-5.9,0.6-6.6,0.5c-0.9-0.2-3.7-0.4-4-0.3c-0.3,0.1,0.3-0.8,0-0.7c-0.3,0.1-0.5,0.2-0.7,0.4
			c-0.4,0.3-0.5,0.5-0.7,0.8c-0.1,0.2-0.3,0.4-0.5,0.5c-0.3,0.2-0.7,0.5-1,0.6c-0.2,0.1-0.4,0-0.6,0.1c-0.2,0.1-0.3,0.2-0.4,0.2
			c-0.3,0.1-0.5,0.1-0.7,0.2c-0.5,0.2-1.1,0.6-1.6,0.8c-0.4,0.2-0.8,0.2-1.2,0.5c-0.5,0.4-0.7,1-1,1.5c-0.3,0.6-0.6,1.1-1.1,1.5
			c-0.4,0.3-0.9,0.4-1.3,0.6c-0.2,0.1-0.4,0.1-0.6,0.2c-0.2,0.1-0.4,0.3-0.6,0.4c-0.4,0.2-0.9,0.2-1.2-0.2c-0.2-0.2-0.4-0.6-0.5-0.8
			c-0.2-0.4-0.5-0.7-0.8-1c-0.6-0.8-1.3-1.3-2-2c-0.6-0.5-1-1.1-1.3-1.8c-0.6-1.1-1.6-1.2-2.7-1.6c-0.9-0.4-1.6-0.8-2.2-1.6
			c-0.7-1.1-1.3-2.3-1.8-3.5c-0.5-1.3-1.5-2.1-2.3-3.3c-0.4-0.6-0.7-1.3-0.9-1.9c-0.2-0.6-0.5-1.2-0.6-1.9c-0.1-1,0.2-2.1,0-3.1
			c-1.5-7.2-1.5-15.1-7.6-21.3c4.4,6.2,5.3,14.1,6.3,21.3c0.3,1.4,0.4,2.9,0.8,4.2c0.2,0.9,0.5,1.7,0.7,2.6c0.2,1,0.1,1.9-0.2,2.9
			c-0.1,0.3-0.2,0.6-0.4,0.9c-0.2,0.4-0.3,0.4-0.7,0.6c-0.3,0.2-0.4,0.3-0.8,0.4c-0.5,0.1-0.9,0.3-1.4,0.5c-1,0.4-1.8,0.6-2.8,0.4
			c-1.1-0.3-2.4-0.3-3.6-0.2c-1.3,0.2-1.8-0.3-2.4-1.5c-0.9-6.6-6.5-9.2-7.3-15.4c-1.8-11.5-14.7-10.6-22.7-14.6
			c-0.8-0.5-1.6-0.9-2.3-1.3c-0.9-0.6-2-1-3.1-1c-1.2,0-1.9,0.9-2.6,1.7c-0.4,0.4-0.9,0.8-1.1,1.3c-0.4,0.7,0,1.2,0.2,1.8
			c0.2,0.7-0.1,1.3-0.1,2c0,0.9,0.5,1.8,1.3,2.4c4.4,1.5,3.5,5.9,4.4,9.4c-1.8,0-2.6,0-4.5-1c-0.5-0.5-1.4-0.6-1.7-1.3
			c-0.2-0.5-0.3-1-0.5-1.5c-0.2-0.4-0.4-0.8-0.6-1.2c-0.1-0.3-0.2-0.6-0.4-0.8c-0.3-0.6-0.9-1-1.4-1.4c-0.4-0.4-1-0.8-1.4-1.2
			c-0.2-0.3-0.5-0.7-0.6-1c-0.1-0.2-0.3-1-0.2-1.2c0.4,0.1,0.8,1.3,1.1,1.7c0.6,0.8,1.6,1,2.1,1.9c0.4,0.5,0.9,1,1.3,1.5
			c0.3,0.5,0.5,1,0.8,1.5c0.3,0.5,0.6,0.9,1,1.3c0.6,1,2.3,1.9,3.2,1c0.9-2.6-0.9-4.4-2.4-4.9c-0.6-0.4-1.2-0.6-1.8-1.2
			c-0.2-0.2-0.4-0.5-0.6-0.7c-0.5-0.4-1.1-0.7-1.6-1c-0.6-0.4-1.2-0.8-1.6-1.3c-0.3-0.5-0.4-1.3-0.4-1.9c0-0.5,0.2-1,0.7-1.3
			c0.3-0.2,0.7-0.1,1-0.2c0.4-0.1,0.7-0.4,0.8-0.7c0.2-0.6,0.3-1.1,0.7-1.7c0.8-1.2,1-2.2,0.7-3.6c-0.1-0.5-0.3-1-0.1-1.5
			c0.3-0.7,1-1.2,1.6-1.5c0.8-0.4,1.8-0.9,2.7-0.9c1.5-0.1,3,0.5,4.2,1.5c1.1,0.9,1.7,2.4,2.6,3.5c1.5,4.1,7.6-4.7,6.7,3.2
			c15,0.9,20.3,16.7,24.7,29.4c0.3,0.1,0.8,0.3,1.2,0.2c0.4-0.1,0.8-0.4,1.2-0.6c1.3-0.5,2.8-0.4,4.2-0.3c0.7,0,1.1-0.3,1.6-0.8
			c0.5-0.5,0.6-0.9,0.6-1.5c0-0.6-0.1-1.1-0.2-1.7c-0.2-0.7-0.5-1.3-0.6-2c1-13-6.9-22.7-12.3-33.8c-0.4-1.3-0.5-2.6-0.7-3.9
			c-0.1-1.3-0.2-2.7-0.2-4c-0.3-5-2-9.8-2.6-14.7c-0.2-2.1-0.3-4.1-0.1-6.2c0.1-1.1,0.3-2,0.6-3c0.2-0.7,0.4-1.5,1-2
			c0.7-0.6,1.5-1,2.3-1.3c0.1,0,0.3-0.2,0.5-0.2c0.5,0,1,0.8,1.2,1.1c0.6,0.9,0.7,1.9,0.8,3c0.1,1.1,0.2,2.2,0.1,3.3
			c0,0.8,0,1.6,0.1,2.4c0.2,1.6,0.3,3.2,0.3,4.8c0.2,2.8,0.5,5.5,0.8,8.3c0.3,2.7,0.6,5.5,1.1,8.2c0.2,1.2,0.5,2.3,0.7,3.4
			c0.2,1.1,0.4,2.2,0.8,3.2c0.3,0.8,0.6,1.7,1,2.5c5.4,7.1,8,14.1,7,22.1c0.2,0.9,0.3,1.9,0.4,2.8c0.1,1.2,0.4,2.3,0.5,3.4
			c0.1,0.9,0.1,1.8,0.5,2.6c0.7,1.7,2.6,2.8,3,4.6c0.1,0.3,0,0.6,0.2,0.8c0.7,0.9,1.8-0.4,2.2-1c0.7-0.9,1.4-1.9,2.6-2.1
			c0.8-0.2,1.2,0.3,1.5,1c0.3,0.6,0.5,1.4,0.6,2c0.1,0.6,0,1.2,0.2,1.9c0.3,0.8,0.8,0.9,0.5,1.8c-0.3,0.9-0.8,1.4,0,2.3
			c0.6,0.7,1.5,0.8,2.2,1.4c0.3,0.3,0.5,0.5,0.6,0.9c0,0.1,0,0.5,0.1,0.6c0.6,0.9,2.5-1.6,2.9-2c0.6-0.7,1-1.3,1.7-1.9
			c0.8-0.7,1.5-1.6,2.3-2.2c0.4-0.3,0.8-0.2,1.3-0.2c0.6,0,1.3,0,1.9,0c0.5,0,1-0.2,1.5-0.4c0.9-0.3,1.9-0.5,2.7-1
			c0.9-0.6,1.5-1.4,2-2.4c0.2-0.5,0.4-0.9,0.7-1.3c0.4-0.5,0.9-0.6,1.5-0.7c1.4-0.1,4.5-0.2,5.1,1.6c0.2,0.6,0.2,1.2,0.5,1.7
			c0.4,0.8,1.3,1.3,2.2,1.4c0.8,0.1,1.1-0.5,1.9-0.6c0.7-0.1,1.4,0,2,0c0.7-0.1,1.4-0.1,2-0.5c0.8-0.4,1.4-1,1.9-1.6
			c0.8-0.9,1.5-1.4,2.6-1.8c0.9-0.3,1.8-0.7,2.8-1c0.7-0.2,1.4-0.3,2-0.7c0.4-0.2,0.7-0.7,1.1-0.9c0.1,0.5-0.5,1.3-0.6,1.7
			c-0.3,0.6-0.6,1.2-1.1,1.7c-0.4,0.4-0.6,0.6-1.1,0.8c-0.4,0.1-0.6,0.3-0.8,0.7c-0.4,0.6-0.7,2-1.5,2.2c-0.5,0.1-0.9-0.3-1.3-0.5
			c-0.6-0.3-1.2-0.4-1.9-0.1c-0.8,0.4-1.5,0.9-2.4,1.2c-0.8,0.3-1.7,0.5-2.5,1c-0.8,0.5-1.1,1.2-2.1,1.3c-0.9,0.1-1.9-0.1-2.8,0
			c-1,0.1-1.9,0.7-3,0.9c-1.2,0.2-2.4-0.4-3.5-0.8c-1.2-0.5-5.7-0.7-5.9-0.7L447.2,252.7z"/>
		<path class="st0" d="M357.8,292c-0.5-1.1-1.3-2.2-1.3-3.3c0-0.9,0.1-1.8,0-2.7c0-0.8-0.4-1.6-0.4-2.5c-0.1-0.5-0.3-0.9-0.5-1.3
			c-0.2-0.5-0.3-1-0.4-1.6c-0.2-1-0.4-1.9-0.6-2.9c-0.2-0.9-0.7-1.5-1.3-2.2c-0.5-0.7-0.9-1.8-0.9-2.7c0-0.4,0.1-0.9,0-1.3
			c0-0.3-0.2-0.6-0.2-0.9c0-0.4,0-0.8,0-1.1c0-0.8-0.2-1.5-0.5-2.2c-0.4-0.9-0.7-2-1.2-3c-0.5-1.1-0.5-1.7-0.2-2.8
			c0.2-0.7,0.7-1.6,1.5-1.8c2.5-0.8,3.3,0.9,4.9,1.5c0.6,0.5,0.4,1.3,0.4,2.1c0,1,0.1,1.9,0.6,2.8c0.2,0.4,0.5,0.7,0.7,1
			c0.1,0.1,0.3,0.3,0.3,0.4c0.1,0.2,0.1,0.3,0.2,0.5c0.3,0.7,0.5,1.7,0.4,2.4c0,0.5,0.1,1,0.2,1.5c0.1,0.4,0.2,0.8,0.4,1.1
			c0.6,0.8,1.8,0.2,2.5-0.1c0.5-0.2,1-0.5,1.6-0.8c0.3-0.2,0.7-0.2,1-0.3c0.2-0.1,0.6-0.3,0.9-0.2c0.3,0,0.5,0.3,0.8,0.4
			c0.3,0.1,0.6,0.2,0.8,0.3c0.5,0.2,0.9,0.5,1.3,0.8c0.6,0.5,1.5,0.8,2.3,1.1c0.3,0.1,0.7,0.2,1.1,0.4c0.3,0.1,0.6,0.2,0.9,0.3
			c1.4,0.2,2.8,0.7,4.1,1.2c1.3,0.5,2.6,1.2,3.8,1.9c11.2,9.8,20.9,7.2,29.7-5.2c0.9-1.8,4.4,0.9,6,2.6c1.5,0.3,3.4,0.4,4.9,0
			c0.8-0.2,1.8-0.9,2-1.8c0.1-0.4-0.1-0.8,0.3-1.1c0.4-0.4,1.1-0.5,1.6-0.6c2.1-0.5,4.2-1,6.1-1.8c1.6-0.7,2.8-1.9,4.2-3
			c0.4-0.3,1-0.7,1.4-1.1c0.5-0.6,0.9-1.2,1.6-1.6c1-0.5,1.7-0.8,2.4-1.7c0.3-0.4,0.4-0.7,0.7-1.1c0.3-0.4,0.8-0.7,1.1-1.2
			c0.4-0.5,0.7-0.9,1.1-1.3c0.4-0.5,1-0.8,1.4-1.3c0.7-0.8,1.4-1.5,1.8-2.4c0.3-0.7,0.8-1.3,1.1-2c0.3-0.6,0.4-1.3,0.8-1.8
			c0.5-0.6,1.1-1.1,1.6-1.8c0.6-0.9,1.2-1.7,1.7-2.6c0.7-1.3,1.4-2.6,2.2-3.9c0.3-0.4,0.7-0.7,0.9-1.2c0.2-0.4,0.2-0.9,0.4-1.3
			c0.4-0.9,0.7-1.8,1.1-2.7c0.5-1,0.9-2.1,1.4-3.1c0.5-1.3,0.6-2.6,0.7-3.9c0.1-2.8,2.6-4.3,4.5-6c1-0.9,1.9-1.9,2.6-3.1
			c0.5-0.8,1.2-1.4,1.9-2.1c0.7-0.7,1.6-0.9,2.3-1.5c0.9-0.8,1.7-1.8,2.5-2.8c0.5-0.6,0.9-1.2,1.4-1.8c0.8-0.8,1.7-1.6,2.4-2.5
			c0.6-0.8,1.3-1.7,1.7-2.6c0.1-0.3,0.2-0.6,0.3-0.9c0.2-0.6,0.5-1.4,0.5-2c-0.1-0.8-0.4-1.1-1.1-1.3c-1.1-0.4-2-0.8-3.1-0.3
			c-1.1,0.5-1.9,1-2.7,1.9c-0.5,0.6-0.9,1.2-1.4,1.7c-0.4,0.3-0.7,0.6-1.1,0.9c-0.3,0.3-0.5,0.7-0.7,1.1c-0.4,0.5-0.9,0.9-1.2,1.4
			c-0.3,0.5-0.6,1-0.9,1.4c-0.8,1.2-1.5,2.4-2.3,3.7c-0.9,1.5-1.7,3.2-2.4,4.9c-0.6,1.3-1.4,2.5-1.9,3.8c-0.4,1-1.1,1.9-1.6,2.9
			c-0.5,1-1.2,1.9-1.6,2.9c-1,2.7-1.5,5.6-2.9,8.1c-0.7,1.2-1.1,2.5-1.7,3.7c-0.5,1.1-1.2,2.2-1.8,3.3c-1.1,1.8-2,3.7-3,5.5
			c-0.1,0.2-0.2,0.2-0.3,0.4c-0.1,0.1,0,0.3,0,0.4c-0.1,0.2-0.5,0.5-0.7,0.7c-0.3,0.3-0.4,0.6-0.7,0.9c-0.2,0.3-0.6,0.4-0.9,0.8
			c-0.4,0.5-0.8,1-1.1,1.4c-0.4,0.6-0.7,1.2-1.1,1.8c-0.4,0.6-0.8,1-1.2,1.6c-0.7,1.3-1.5,2.6-2.6,3.6c-0.9,0.8-2,1.4-3.1,1.9
			c-2.6,1.1-5.4,1.9-8.1,2.9c-1.2,0.4-2.3,0.9-3.5,1.3c-1.1,0.4-2.3,0.6-3.3,1.1c-0.9,0.4-1.5,1.4-2.4,1.8c-1.1,0.5-1.9-0.2-2.9-0.8
			c-1.1-0.6-1.3-0.3-2.6-0.4c-10,2.4-20.6,10.3-31.2,5.9c-1.2-0.4-2.4-0.9-3.6-1.5c-1.2-0.6-2.3-1.3-3.4-2.1
			c-1.3-0.6-2.4-1.7-3.8-2.4c-1.1-0.5-2.2-1-3.3-1.4c-0.9-0.3-1.7-0.6-2.5-1c-0.5-0.3-0.9-0.4-1.2-0.9c-0.4-0.7-0.8-1.2-1.3-1.8
			c-0.7-1-1.2-2.1-1.9-3.1c-8.1-7.1-16-11.5-21.2-21.5c-0.9-0.7-1.7-1.5-2.4-2.3c-0.7-0.8-1.4-1.7-2.1-2.6c-0.8-1-1.4-2.1-2.5-2.9
			c-0.3-0.2-0.7-0.4-0.8-0.7c-0.3-0.5-0.2-1.4,0.1-1.9c0.5-0.8,0.8-0.2,1.6-0.2c0.4-0.7-1.2-2.4-1.5-2.9c-0.7-1.1-0.8-2.2-1.1-3.4
			c-0.3-1.4-1.1-2.5-1.4-3.9c-0.1-0.8-0.5-1.6-0.8-2.3c-0.4-1.1-0.7-2-1.4-2.9c-0.5-0.8-1.1-1.7-1.8-2.3c-0.6-0.5-1.4-1-2.1-1.4
			c-0.7-0.4-2.1-1.2-2.9-0.4c-0.8,0.8-1,2.8-0.9,3.9c0.1,1.5,0.3,3.1,0.9,4.5c0.7,1.9,2,3.4,3.1,5.1c0.9,1.5,1.9,3.1,3,4.5
			c0.7,1,1.6,1.8,2.5,2.6c0.5,0.4,0.8,0.9,1.3,1.2c0.7,0.5,1.5,1.2,2.1,2c0.5,0.7,0.9,1.5,1.4,2.3c0.6,0.8,1,1.7,1.4,2.7
			c0.5,1.2,1.2,2.3,1.9,3.4c0.4,0.6,0.6,1.3,1,2c0.4,0.8,0.9,1.4,1.4,2c1,1.4,1.7,3,2.5,4.5c1,1.9,1.8,4,2.8,6
			c0.9,1.8,1.6,3.6,2.3,5.6c1.2,3.9,2.2,7.9,3.6,11.8c1,2.8,2.7,5.6,3.3,8.5c0.1,0.6-0.1,1.4-0.4,1.9c-0.2,0.5-0.4,0.5-0.9,0.5
			c-1.2,0-2.3-0.6-3.3-1.1c-0.6-0.3-1.1-0.7-1.7-0.9c-1.6-0.7-3.3-0.8-4.8-1.6c-0.9-0.5-1.8-1.1-2.7-1.6c-1.2-0.6-2.2-0.9-3.5-1.1
			c-1.9-0.3-3.7-1-5.7-1.2c-1.4-0.1-2.9-0.4-4.3,0.1c-1.3,0.5-2.4,1.8-2,3.3c0.1,0.6,0.7,1.6,1.3,1.9c0.8,0.3,1.9,0,2.7-0.2
			c1.8-0.4,3.5,0,5.3,0c1.7,0.1,3.4-0.3,5.1-0.4c0.8,0,1.3,0.3,2,0.4c0.8,0.2,1.8,0.3,2.7,0.3c1.5,0.1,2.9-0.1,4.3,0.3
			c1.5,0.4,3,1.3,4,2.4c1.2,1.2,2.1,2.6,3,4c0.4,0.6,0.7,1.2,1.2,1.6C357.5,292.3,357.9,292.4,357.8,292z"/>
		<path class="st0" d="M338.1,239.1c0.6,0.7,1.2,1.4,1.8,2.2c2,9.7,10,13.2,16.2,20.2c-0.1,0.5-0.3,0.9-0.3,1.4
			c0,0.6,0.3,1.1,0.6,1.6c0.3,0.4,0.5,0.9,0.8,1.3c0.4,0.6,0.5,1.2,0.6,1.9c0,0.2,0.1,0.4,0.2,0.7c0,0.3,0,0.5,0,0.8
			c0.1,0.5,0.2,1,0.4,1.4c0.3,0.7,0.8,1.4,1.2,2c0.4,0.5,0.5,1.1,1.2,1.3c0.8,0.2,1.5-0.3,2.3-0.6c0.5-0.2,1-0.4,1.5-0.4
			c0.5,0,1.1,0.3,1.6,0.5c0.9,0.3,1.8,0.9,2.7,1.1c0.8,0.2,1.6-0.1,2.4-0.1c0.9,0,1.3,0.4,2,0.9c1.2,0.7,2.5,1.2,3.7,1.8
			c1.2,0.6,2.5,1.1,3.7,1.6c7.9,1.4,11.4,11.9,19.3,10.2c4.4-0.9,6.2-7.9,7.9-12.3c1.8-4.4,7.9,0,11.9,0.9c0.9-0.3,1.9-0.5,2.6-1.2
			c0.3-0.4,0.6-1,0.9-1.5c0.2-0.4,0.7-0.9,1.1-1.1c0.4-0.2,0.9-0.3,1.3-0.6c0.3-0.2,0.7-0.4,1-0.6c0.6-0.5,1.2-0.7,2-0.9
			c0.6-0.2,1.4-0.2,2-0.5c0.3-0.1,0.6-0.4,0.8-0.6c0.6-0.5,1.1-1,1.7-1.4c0.6-0.3,1.8-0.8,1.8-1.7c-0.3-0.1-0.8,0.4-1.1,0.6
			c-0.6,0.3-1.1,0.7-1.7,1c-1.9,1.2-4,1.4-6.1,2.2c-1.5,0.5-2.4,1.8-3.8,2.6c-0.3,0.1-0.4,0.3-0.7,0.3c-0.4,0-0.9-0.3-1.3-0.3
			c-1.2-0.2-2.4-0.7-3.6-0.6c-0.9,0.1-1.5,0.1-2.3-0.2c-1.3-0.8-3.1-1.6-4.9-0.8c-8.8,5.3-17.6,11.5-27.6,5.1
			c-1.3-0.6-2.5-1.2-3.7-1.9c-1.2-0.6-2.3-1.3-3.3-1.9c-0.8-0.5-1.8-0.9-2.7-1.2c-1.3-0.4-2.7-0.4-3.9-1.3c-0.8-0.5-1.3-1.3-1.9-2
			c-0.7-0.9-1.5-1.4-2.5-2c-1.2-0.8-2.3-1.5-3-2.8c-0.7-1.1-1.1-2.4-1.7-3.6c-7-6.1-14.9-10.5-18.5-19
			C339.8,240.9,339,240.3,338.1,239.1z"/>
		<path class="st0" d="M412.4,258.5c0.7-0.4,1-0.6,1.7-0.8c0.4-0.1,0.8,0,1.1,0c0.3,0,0.6,0,0.8,0c0.3,0,0.5,0.2,0.8,0.2
			c0.6,0,1.2-0.1,1.8-0.1c0.4,0,0.7-0.2,1.2-0.2c0.5,0,0.8-0.1,1.3-0.2c0.6-0.1,0.8-0.3,1.2-0.8c0.5-0.7,1.5-1.4,2.4-1.5
			c0.7,0,0.9,0.5,1.4,0.8c0.5,0.4,1.2,0.8,1.8,1c0.4,0.1,0.8,0.1,1.2,0.2c0.4,0.1,0.9,0.1,1.3,0.2c0.5,0.1,0.6,0.2,1.1,0
			c0.5-0.1,0.9-0.3,1.4-0.5c0.8-0.3,1.5-0.5,2.3-0.8c0.4-0.2,0.7-0.2,1.1-0.2c0.5-0.1,1.1-0.2,1.6-0.3c0.4,0,0.8,0.1,1.2,0
			c0.3-0.1,0.6-0.1,0.9-0.2c0.9-0.3,1.9-0.6,2.8-0.8c0.3-0.1,0.6-0.1,0.9,0c0.3,0,0.4,0.2,0.7,0.3c0.5,0.2,1,0,1.3-0.4
			c0.3-0.4,0.6-0.8,0.8-1.2c0.3-0.5,0.8-0.9,1.2-1.4c0.4-0.5,0.8-0.9,1.1-1.5c0.2-0.2,0.8-1.6,0.2-1.3c-0.1,0.1-0.4,0.3-0.5,0.4
			c-0.3,0.2-0.5,0.4-0.8,0.6c-0.5,0.4-1.1,0.5-1.7,0.6c-0.7,0.2-1.3,0.4-2,0.6c-0.8,0.2-2,0.2-2.5,0.9c-0.2,0.2-0.2,0.5-0.4,0.7
			c-0.1,0.1-0.2,0.2-0.3,0.2c-0.1,0.1-0.1,0.4-0.2,0.5c-0.1,0.2-0.3,0.2-0.5,0.3c-0.1,0.1-0.2,0.3-0.3,0.3c-0.4,0.3-1,0.4-1.5,0.5
			c-1.2,0.2-2.3,0.6-3.5,1c-0.8,0.3-1.9,0.5-2.7,0.1c-0.4-0.2-1-1-1.1-1.3c-0.2-0.6,0-1.5,0-2.1c0-0.6-0.1-1.3-0.7-1.6
			c-0.6-0.4-1.2-0.6-1.8-0.7c-0.2,0-0.5,0-0.7,0c-0.4,0-0.8-0.2-1.2-0.2c-0.9,0-2-0.3-2.9-0.2c-1.1,0.2-1.7,1.4-1.7,2.4
			c0,0.4-0.1,0.9-0.2,1.3c-0.1,0.4-0.2,0.8-0.4,1.2c-0.3,0.4-0.5,0.5-1,0.7c-0.6,0.2-0.8,0.2-1.5,0c-0.5-0.1-1-0.3-1.5-0.1
			c-0.2,0.1-0.5,0.2-0.7,0.4c-0.2,0.2-0.2,0.4-0.4,0.6c-0.1,0.2-0.4,0.3-0.5,0.5c-0.1,0.1-0.2,0.3-0.3,0.4c-0.3,0.2-0.7,0.2-1,0.2
			c-0.4,0-0.5-0.2-0.8-0.2c-0.3,0-0.5,0.1-0.7,0.3c-0.2,0.1-0.3,0.4-0.5,0.5C412.5,258.1,412.3,258.4,412.4,258.5z"/>
		<path class="st0" d="M338.9,231.6c0-0.3-0.1-1.6-0.2-2c-0.1-0.2-0.2-0.4-0.2-0.6c-0.1-0.6,0.1-1.2,0.3-1.8c0.2-0.6,0.4-1.3,0.4-2
			c0-0.7-0.1-1.5,0-2.1c0.2-0.9,1.2-1.8,1.8-2.6c0.4-0.6,0.8-1.3,1.3-1.7c0.8-0.6,1.6-0.8,2.5-0.4c1.5,0.7,1.8,2.4,3.2,3.3
			c0.9,0.6,1.8,1,2.7,1.6c11.4,1.3,21.1,6.6,25.5,18.1c-3.5-7-7-16.7-16.7-16.7c-2.6,0-2.6-3.5-3.5-4.4c-0.9,0-3.5-0.9-4.2,1
			c-0.4,0.3-1.4-0.1-1.8-0.4c-0.4-0.3-0.3-0.5-0.4-0.9c-0.2-0.8-0.4-1.4-0.9-2c-0.5-0.7-1.2-1.4-1.9-2c-0.4-0.4-0.7-0.7-1.4-0.7
			c-0.8,0.1-1.7,0.4-2.5,0.5c-1,0.2-1.9,0-2.9,0.2c-0.6,0.1-1.6,0.3-2,0.8c-0.4,0.6-0.4,1.8-0.3,2.5c0.1,0.7,0.4,1.4,0.4,2.2
			c0,0.7,0.1,1.5-0.2,2.2c-0.2,0.6-0.4,1.3-0.8,1.8c-0.3,0.3-0.7,0.7-1.1,0.9c-0.6,0.3-1,0.3-1.1,1c-0.1,0.7,0,1.3,0.4,1.9
			c0.4,0.6,0.8,1.3,1.3,1.7c0.3,0.3,0.5,0.5,0.9,0.6C338.3,231.7,338.8,232.1,338.9,231.6z"/>
		<path class="st0" d="M430.9,244.5c0,1-0.5,4,1.3,3.5c0.3-0.1,1.5-0.9,1.8-1c0.8-0.4,1.4-0.9,2-1.6c1.3-1.5,3-2.8,1.5-4.9
			c-0.9-1.3-2.4-2-3.9-1.8c-2.9,0.4-3.4,3.7-3.6,6.2L430.9,244.5z"/>
		<path class="st0" d="M436.4,223.6c-0.2-1.7-0.8-3.3,0.7-4.1c0.8-0.4,1.2-0.3,1.7,0.4c0.3,0.4,0.7,1,0.8,1.4
			c0.3,1.1-0.1,1.6-0.9,2.2L436.4,223.6z"/>
		<path class="st0" d="M447.7,267.3c1.2-2.5,3.1-6.2,6.3-6.6c1.9-0.2,2.9,2.2,3.1,3.7c0.2,1.5-0.7,3.7-1.6,4.8c-1.4,1.9-3.3,2-5.5,2
			c-0.7,0-1.4,0-2.1,0c-1,0-1.2,0.3-2,0.9c-0.9,0.7-2.1,2.8-3.2,3c-1.3,0.3-1.9-1.6-1.4-2.6c0.3-0.6,0.8-1.2,1.1-1.7
			c0.6-0.9,0.9-2.1,1.8-2.7L447.7,267.3z"/>
		<path class="st0" d="M457.5,254.5c1.2,0.1,2.4,0.1,3.7-0.1c0.3-0.7,1.3-1.2,1.7-1.9c0.4-0.6,0.7-1.6,0.4-2.4
			c-0.2-0.3-0.9-0.9-1.2-1c-1.5-0.5-2.3,0.8-3.2,1.8L457.5,254.5z"/>
		<path class="st1" d="M426.5,271.6c0.5-0.3,1-0.6,1.6-0.7c0,0.3,0.4,0.3,0.6,0.5c0.2,0.3,0.3,0.7,0.3,1.1c0,0.9-0.2,1.4-0.6,2.2
			c-0.4,0.7-0.8,1.5-1.1,2.2c-0.5,1-0.8,2.1-1.2,3.2c-0.5,1.1-1,2.2-1.4,3.2s-0.8,2.2-1.1,3.4c0.5,4.8-3.1,7.4-5.7,10
			c4.4,2.6,4.4-5.3,5.9-7.8c0.3-0.7,0.4-1.3,0.6-2c0.3-0.7,0.2-1.4,0.5-2c0.1-0.2,0.1-0.6,0.3-0.8c0.2-0.2,0.4-0.4,0.6-0.6
			c0.5-0.4,1-0.7,1.6-0.9c0.6-0.2,1.3-0.6,1.8-1c0.5-0.4,1.1-1,1.5-1.5c0.5-0.5,1.2-1.1,1.6-1.8c0.5-0.8,1-1.5,1.4-2.3
			c0.5-1,1.1-1.8,2-2.5c1.2-0.9,1.9-1.9,2.8-3c0.9-1.1,1.6-2.4,2.1-3.8c0.4-1.3,1.2-2.5,2.1-3.6c0.6-0.7,1.8-1.7,1.8-2.7
			c0-0.6-0.2-0.5-0.5-0.2c-0.4,0.3-0.9,0.7-1.3,1.1c-0.4,0.4-0.7,0.7-1.1,1c-0.5,0.4-0.7,0.7-0.9,1.3c-0.4,0.7-0.7,1.5-1.3,2.1
			c-0.6,0.6-1.3,1.1-1.8,1.8c-1.1,1.6-1.1,3.7-2.3,5.2c-0.8,1.1-2.1,1.6-2.8,2.7c-0.4,0.6-0.9,1.3-1.2,2c-0.4,0.7-0.6,1.7-1.4,2.1
			c-1.1,0.7-2.1-0.7-1.6-1.7c0.3-0.5,0.8-1,1-1.6c0.2-0.6,0-1.3,0.2-1.9c0.1-0.7,0.3-1.4,0.4-2.2c0.1-0.4-0.1-0.7,0-1.1
			c0.1-0.3,0.2-0.4,0.2-0.7c0-0.4,0-0.7-0.4-1C428.7,269,427.9,270.2,426.5,271.6z"/>
		<path class="st1" d="M405,278.8c-2.3,4.8,0.4,10,4.8,6.5c0.9-0.9,4.4-3.5,5.3-0.9c0.9,5.3,0.9,12.3-6.2,14.1
			c4.4-2.6,6.2-7.9,3.5-11.5c-1.8-3.5-7,2.6-10.6-0.9c-0.9-1.8,0-3.5,0.3-5.3C402.3,280.4,403.1,279.6,405,278.8z"/>
		<path class="st1" d="M367.3,271.8c0.3,2.3,0.1,4.5,0.6,6.8c0.4,1.8,1.3,3.2,2.7,4.4c1.9,4.8,6.5,8.7,9.5,13.4
			c0.6,0.9,1.1,1.9,1.6,3c-7.9-10.6,7-7.9,8.8-17.6c-1.8,4.4-4.4,7-9.2,7.6c-1,0.1-2.1,0.1-3.2,0c-1.1-0.1-2.3-0.3-3.4-0.6
			c-3.5-1.8-1.8-7-5.2-8.6c-0.1-0.2-0.4-0.4-0.5-0.6c-0.1-0.2-0.1-0.6-0.2-0.8c-0.2-0.6-0.3-1.2-0.4-1.8c-0.1-0.4,0-0.7,0-1.1
			c-0.1-0.4-0.2-0.6-0.2-1C367.9,274,368.2,272.7,367.3,271.8z"/>
		<path class="st1" d="M349.6,254.6c0.3,1.1,0.4,1.7,0.4,2.7c0,0.7,0,1.5,0,2.2c0,1.6-0.1,3.1,0.4,4.6c0.5,1.7,1,3.4,1.9,4.9
			c0.3,0.5,0.6,1,0.9,1.6c0.3,0.5,0.5,1.1,0.9,1.6c0.9,1.2,2.5,2,3.9,2.3c0.8,0.1,1.7,0.2,2.4,0.7c0.5,0.4,0.8,1.1,1.2,1.6
			c0.3,0.4,0.4,0.7,0.7,1.1c0.3,0.5,0.6,0.8,0.8,1.5c0.1,0.4,0.4,1.2,0.3,1.5c0,0.5-0.5,1.1-0.9,1.4c-0.6,0.4-1.4,0.4-1.9,0.8
			c-0.5,0.3-0.7,1.2-0.6,1.7c0.1,0.5,0.3,1,0.4,1.4c0.2,0.7,0.4,1.3,0.9,1.9c0.9,1,1.5,2.2,2.1,3.4c0.4,0.7,0.9,1.3,1.3,2
			c0.4,0.7,0.7,1.3,1.1,1.9c0.3,0.4,0.8,0.8,1.1,1.1c0.2,0.1,0.5,0.2,0.7,0.4c0.4,0.2,0.6,0.5,1.1,0.3c-0.1-0.3-0.4-0.6-0.6-0.9
			c-0.4-0.5-0.7-1-1.1-1.5c-0.4-0.6-1-0.9-1.5-1.4c-1-0.8-2-1.8-2.5-3.1c-0.4-0.9-0.4-1.9-1-2.7c-0.4-0.6-0.9-0.9-1.2-1.5
			c-0.6-1.4,0.5-2.7,1.7-3.3c0.4-0.2,0.6-0.3,1.1-0.3c0.4,0,0.6,0,0.9-0.2c1.1-0.5,1.9-1.3,2-2.6c0.1-1.3,0.4-2.4,0.1-3.7
			c-0.1-0.4-0.3-0.6-0.4-1c-0.1-0.2,0-0.4,0-0.6c0-0.2-0.2-0.4-0.2-0.7c0-0.3,0-0.9-0.2-1.1c-0.4-0.2-0.6,0.1-0.8,0.2
			c-0.4,0.1-0.7,0-1.1,0.1c-0.5,0.1-0.9,0.4-1.3,0.6c-1.1,0.4-2.1-0.9-3.1-1.3c-0.8-0.3-1.3,0.2-2.1,0.5c-1.7,0.8-2.9-1.2-3.8-2.3
			c-0.4-0.6-0.7-1.2-1.1-1.8c-0.1-0.2-0.3-0.4-0.4-0.7c-0.2-0.5,0-1.1-0.1-1.6c-0.2-0.8-0.3-1.7-0.4-2.5c-0.1-0.9-0.5-1.5-0.8-2.3
			c-0.4-1-0.4-2.2,0-3.1c0-0.5,0-1.4,1.8-1.7C352.4,256,351.1,255.2,349.6,254.6z"/>
		<path class="st1" d="M351.1,222.9c12.9,8.7,13.7,25.4,16.2,39.7c0,0.3,0.1,0.6,0.2,0.8c0.1,0.4,0.1,0.7,0.3,1.1
			c0.3,0.5,0.6,1,1,1.5c0.2,0.3,0.3,0.5,0.4,0.8c0,0.2,0,0.4,0,0.6c0,0.3,0.1,0.3,0.2,0.5c0.2,0.7,0.2,1.2,0.8,1.7
			c0.5,0.5,1.5,0.3,2,0.9c0-0.4-0.6-1.2-0.9-1.5c-0.4-0.5-0.8-0.9-1.2-1.3c-0.3-0.3-0.7-0.6-0.8-1c-0.1-0.2,0-0.4,0-0.6
			c-0.1-0.3-0.2-0.6-0.2-0.9c-0.2-1.5-0.8-2.9-1.4-4.3c-1.8-8.2,2.6-13.5,6.1-19.6c0.9-2.6-0.9-4.4-1.8-7c3.5,6.2-0.9,11.5-5.3,15
			c-3.5-8.8-3.5-19.4-12-24.9C353.5,223.8,352.4,223.3,351.1,222.9z"/>
		<path class="st1" d="M380.6,253.3c0,0.3,0.9,1.2,1.1,1.1c0.1,0.2,0.2,0.3,0.4,0.4c0.1,0.1,0.2,0.1,0.3,0.2
			c0.1,0.1,0.2,0.3,0.3,0.5c0.2,0.2,0.4,0.4,0.5,0.7c0.2,0.4,0.1,0.9,0.1,1.3c0,0.3,0.1,0.5,0.1,0.8c0,0.3,0,0.5,0.1,0.7
			c0.1,0.4,0.4,0.7,0.5,1.1c0.1,0.4,0.2,0.8,0.1,1.3c-0.2,0.8-0.5,1.6-0.9,2.3c-0.4,0.6-0.8,1.4-0.8,2.2c0,0.8,0.4,1.4,1,1.9
			c0.2,0.2,0.4,0.2,0.6,0.4c1.2,0.8,2,1.6,2.7,2.4c0.7,0.8,1.2,1.7,1.7,2.6c1.1,1.6,2,4.2,2.9,6c-0.9-1.8-0.9-4.4-2.1-6.3
			c-0.5-0.9-1.1-1.6-1.9-2.4c-0.7-0.7-1.6-1.5-2.6-2.2c-0.1-0.1-0.1-0.3-0.2-0.5c-0.3-0.5-0.8-0.9-1.1-1.4c-0.2-0.3-0.2-0.7-0.1-1
			c0.1-0.2,0.2-0.2,0.4-0.2c0.1,0,0.2-0.1,0.3-0.1c0.3,0,0.6,0.1,0.9,0.1c0.5,0.1,0.9,0.1,1.5,0c0.5-0.1,1-0.3,1.4-0.5
			c0.5-0.2,1-0.4,1.4-0.6c0.6-0.3,1.4-0.5,1.8-1.2c0.3-0.5,0.6-1.2,0.8-1.8c0.1-0.6,0.4-1.1,0.4-1.7c0.1-0.7-0.1-1.4-0.2-2
			c-0.1-0.7-0.3-1.3-0.3-2c0-0.6-0.1-1.4-0.4-1.9c-0.2-0.4-0.4-0.8-0.6-1.2c-0.2-0.5-0.3-0.9-0.4-1.4c0,0.2,0,0.3-0.1,0.4
			c0,0.2,0,0.4,0,0.6c0,0.3-0.1,0.6-0.1,0.9c0,0.5,0.4,1,0.7,1.4c0.3,0.6,0.3,1.2,0.4,1.8c0.1,0.6,0.1,1.3,0.3,1.8
			c0.1,0.5,0.3,1,0.3,1.6c0,0.6,0.1,1.2-0.2,1.8c-0.1,0.2-0.2,0.5-0.3,0.7c-0.1,0.3-0.4,0.5-0.6,0.8c-0.2,0.3-0.4,0.6-0.8,0.7
			c-0.4,0.2-0.8,0.1-1.2,0.1c-1.5,0.2-2.8,1.8-4.4,1c-0.3-0.1-0.6-0.2-0.7-0.5c-0.2-0.5,0.6-1.2,0.8-1.6c0.3-0.4,0.4-0.9,0.4-1.4
			c0-0.2,0-0.5,0-0.7c-0.1-0.4-0.3-0.7-0.4-1c-0.1-0.3-0.2-0.6-0.3-0.9c-0.1-0.3-0.3-0.6-0.4-0.9c-0.1-0.4,0-0.9,0-1.4
			c0-0.3,0-0.7,0-1c0-0.5-0.6-0.7-1-0.7c-0.2,0-0.5,0-0.7,0c-0.2,0-1-0.2-1-0.5C381,253.8,381,253.8,380.6,253.3z"/>
		<path class="st0" d="M388.9,293.6c2.7,1.3,2.7-0.5,3.6-2.2c0.9-2.6-0.9-3.5-2.6-3.5c-2.6,0-3.5,1.8-1.9,4.8
			C388.3,293.1,388.9,293.4,388.9,293.6z"/>
		<path class="st0" d="M414.4,275c1.5-0.2,4.2,0.6,3.3,2.4c0,1.8-1.8-2.6-3.4-1.8C414.1,275.5,413.4,275.1,414.4,275z"/>
		<path class="st0" d="M420.9,276.7c0.6-0.5,1.2-0.9,1.6-1.6c0.2-0.3,0.3-0.6,0.4-0.9c0.1-0.3,0.2-0.5,0.4-0.7
			c0.4-0.4,1-0.9,1.5-1.1c0.4-0.2,1-0.4,1.4-0.3c0,0.1-0.2,0.3-0.3,0.4c-0.2,0.2-0.5,0.4-0.8,0.6c-0.5,0.3-1.1,0.6-1.5,1.2
			c-0.1,0.2-0.2,0.5-0.4,0.7c-0.1,0.3-0.4,0.5-0.5,0.8c-0.2,0.3-0.3,0.6-0.6,0.8C421.9,276.8,421.6,276.9,420.9,276.7z"/>
		<path class="st0" d="M355.7,262.5c0.1,0.5,0,0.9,0.4,1.2c0.2,0.2,0.5,0.4,0.8,0.6c0.5,0.4,1.1,0.6,1.5,1c0.5,0.5,0.8,1.1,0.8,1.8
			c0,0.5,0,1-0.1,1.4c-0.1,0.6,0.1,1.3,0.2,1.9c0.1,0.5,0.2,1,0.4,1.5c0.1,0.3,0.1,0.5-0.1,0.8c-0.1,0.2-0.4,0.3-0.6,0.1
			c-0.2-0.1-0.2-0.4-0.2-0.6c-0.1-0.2-0.2-0.4-0.3-0.6c-0.4-0.6-0.7-1.2-0.9-1.9c-0.1-0.4-0.2-0.9-0.3-1.3c-0.1-0.5-0.1-1-0.2-1.4
			c-0.1-0.6-0.5-1.1-0.8-1.7C356,264.9,355.6,263.9,355.7,262.5z"/>
		<path class="st0" d="M362.4,273.5c0.4-0.3,0.7-0.7,1.1-0.9c0.4-0.2,0.7-0.4,1.1-0.5c0.6-0.2,1.1-0.1,1.7,0.1
			c0.2,0.1,0.4,0.2,0.6,0.4c0.1,0.2,0.2,0.5,0.3,0.8c0.1,0.2,0.2,0.4,0.4,0.6c0.1,0.1,0.4,0.3,0.4,0.4c-0.2,0.1-0.5-0.1-0.7-0.1
			c-0.3-0.1-0.6-0.2-0.8-0.2c-0.5-0.1-1-0.3-1.4-0.4c-0.2-0.1-0.4-0.2-0.6-0.2c-0.2,0-0.5,0-0.7,0
			C363.4,273.5,362.7,274.1,362.4,273.5z"/>
		<path class="st0" d="M375.9,276.2c3-0.6,6.2,0.3,6.2,2.9c-3.1-0.4-4-1.3-5.6-2.7L375.9,276.2z"/>
		<path class="st0" d="M344.3,230c0.6,1.4,1.1,2.8,1.9,4.1c0.8,1.3,1.5,2.5,2.6,3.6c0.4,0.4,0.9,1,1.4,0.6c0.5-0.4,0.3-1,0.3-1.5
			c0-0.2,0.2-0.5,0.2-0.7c0-0.3,0-0.6,0-1c0.2-1.1-0.1-2.1-0.7-3.1c-0.6-1.1-1.5-2.1-2.5-2.8C347,228.8,345.6,228,344.3,230z"/>
		<path class="st0" d="M353.2,239.1c-0.5-1-1.4-2.4-1.1-3.6c0.5,0.1,0.8,0.9,0.9,1.2c0.3,0.8,0.4,1.3,0.4,2.2L353.2,239.1z"/>
		<path class="st0" d="M355.1,226.9c0.1,1.1,0.2,1.6,0.7,2.5c0.2,0.4,0.5,1.1,1,1.3c0.5,0.2,1.1-0.3,1.3-0.7c0.4-0.7,0.2-1.4-0.3-2
			c-0.7-0.6-1.5-0.7-2.3-1.1H355.1z"/>
		<path class="st0" d="M364.7,232.8c0.2,1.2,0.3,1.8,0.9,2.7c0.3,0.4,0.7,1.2,1.2,1.5c0.6,0.4,1-0.5,1.1-1c0.2-1.1-0.3-2.4-1-3.3
			c-0.6-0.8-1.1-0.9-2-0.9L364.7,232.8z"/>
		<path class="st0" d="M425.6,260.1c-1.1,0.6-1.5,0.8-2.1,1.8c-0.3,0.5-0.9,1.4-0.8,2.1c0.2,1.4,2.2,0,2.9-0.3
			c0.8-0.4,1.8-1.4,1.9-2.3c0.1-0.5-0.2-0.8-0.6-1.1c-0.4-0.3-0.6-0.4-1.1-0.4L425.6,260.1z"/>
		<path class="st0" d="M417.2,261.4c-0.4,0.4-2.1,2.1-1.3,2.8c0.5,0.5,1.8-0.1,2.3-0.4c0.5-0.4,0.7-0.8,0.6-1.4
			c-0.1-0.5-0.4-0.6-0.8-0.9H417.2z"/>
		<path class="st0" d="M430.1,262.2c-0.9,0.3-1.3,0.3-1.7,1c-0.2,0.3-0.3,0.5-0.4,0.9c-0.2,0.6-0.1,0.8,0.5,0.5
			C429.5,264.1,430.6,263.3,430.1,262.2L430.1,262.2z"/>
		<path class="st0" d="M417.6,280.9c-1.2,2.7-2.8,5.5-2.7,8.6c0,0.4,0.2,1.1,0.7,1.1c0.3,0,0.8-0.5,1-0.6c0.4-0.4,0.9-0.9,1.3-1.3
			c1.6-1.5,3.1-3.7,3.5-5.9c0.2-0.9,0.2-1.7-0.3-2.6C420.5,279.1,419.5,279.1,417.6,280.9z"/>
		<path class="st0" d="M376.1,280.7c-0.1,0.5-0.4,1.1-0.4,1.6c0,0.2,0.2,0.5,0.3,0.7c0.3,1.2,0.6,2.4,1,3.5c0.6,1.7,1.2,3.3,2.8,4.2
			c0.6,0.3,1.3,0.6,2,0.9c0.4,0.3,0.8,0.6,1.3,0.6c0.9,0,1.1-0.8,1.3-1.5c0.3-0.8,0.7-1.7,0.6-2.5c-0.3-1.8-1.3-3.2-2.6-4.3
			c-0.8-0.7-1.5-1.3-2.3-2c-0.6-0.5-1.1-1.1-1.7-1.6c-0.3-0.2-0.7-0.4-1-0.4C376.9,279.9,376.7,280.1,376.1,280.7z"/>
		<path class="st0" d="M376.3,290c-0.4-0.6-0.8-1.7-1.5-2.1c-0.2-0.1-0.9-0.5-1.1-0.4c-0.5,0.1-0.6,0.9-0.5,1.2
			c0.4,1.1,1.3,2.2,2.6,1.6L376.3,290z"/>
		<path class="st0" d="M397,296.1c-0.6-0.5-1.7-1.2-1.3-2.2c0.2-0.4,1.1-0.7,1.5-0.5c0.3,0.2,0.5,0.8,0.6,1.1
			C397.8,295.2,397.1,295.6,397,296.1L397,296.1z"/>
		<path class="st0" d="M358.7,289.6c0.1,0.9,0,1.7,0.6,2.4c0.1,0.2,0.6,0.7,0.8,0.7c0.5-0.2,0.3-1.2,0.2-1.5
			c-0.2-0.9-0.3-2.3-1.5-2.3L358.7,289.6z"/>
		<path class="st0" d="M355.5,241.7c-0.2,0-1.3,0.3-1.7,0.2c0.1-0.4,1.3-1.3,1.7-1.1c0.2,0.1,0.2,0.7,0.2,0.9c0,0.4,0,0.6-0.2,0.9
			V241.7z"/>
		<path class="st0" d="M348.1,244.7c0.3,0.8,0.6,2.1,1.6,2.4c0.3-0.4,0.5-1.2,0.2-1.7c-0.2-0.4-1-1-1.4-1L348.1,244.7z"/>
	</g>
</g>
</svg>
