<?xml version="1.0" encoding="utf-8"?>
<!-- Generator: Adobe Illustrator 26.1.0, SVG Export Plug-In . SVG Version: 6.00 Build 0)  -->
<svg version="1.1" id="lava" xmlns="http://www.w3.org/2000/svg" xmlns:xlink="http://www.w3.org/1999/xlink" x="0px" y="0px"
	 viewBox="0 0 50 50" style="enable-background:new 0 0 50 50;" xml:space="preserve">
<style type="text/css">
	.st0{fill:#DD5C0A;}
</style>
<g>
	<path class="st0" d="M24.9,2c0,0-0.1,0-0.1,0C24.3,2.1,24,2.5,24,3v7c0,0.6,0.4,1,1,1c0.6,0,1-0.4,1-1c0,0,0,0,0,0V3
		c0-0.6-0.4-1-1-1C25,2,24.9,2,24.9,2z"/>
	<path class="st0" d="M17.8,2c-0.5,0.1-0.9,0.6-0.8,1.2c0,0.2,0.2,0.4,0.3,0.6C20.8,6.6,21,11,21,11c0,0.6,0.5,1,1,1s1-0.5,1-1
		c0,0-0.2-5.2-4.3-8.7C18.4,2,18.1,1.9,17.8,2z"/>
	<path class="st0" d="M31.9,2c-0.2,0-0.4,0.1-0.5,0.2C27.2,5.8,27,11,27,11c0,0.6,0.4,1,1,1s1-0.4,1-1c0,0,0.2-4.4,3.7-7.3
		c0.4-0.4,0.5-1,0.1-1.4C32.5,2.1,32.2,2,31.9,2z"/>
	<path class="st0" d="M11.8,5.5c-0.6,0.1-1,0.5-0.9,1.1s0.5,1,1.1,0.9c3.4,0,4.8,0.8,5.4,1.4c0.3,0.3,0.4,0.6,0.5,0.8S18,10,18,10
		c0,0.6,0.4,1,1,1s1-0.4,1-1c0,0,0-0.4-0.1-0.9c-0.1-0.5-0.4-1-1-1.6c-1.1-1.1-3.2-2.1-6.9-2.1C12,5.5,11.9,5.5,11.8,5.5
		C11.9,5.5,11.8,5.5,11.8,5.5z"/>
	<path class="st0" d="M37,5.5c-3.2,0-5.1,1-6.1,2.1S30,10,30,10c0,0.6,0.5,1,1,1s1-0.5,1-1c0,0,0-0.4,0.5-1.1s1.7-1.4,4.5-1.4
		c0.6,0,1-0.4,1-1C38,6,37.6,5.5,37,5.5C37,5.5,37,5.5,37,5.5z"/>
</g>
</svg>
